<?xml version="1.0" encoding="UTF-8" standalone="no"?>
<!DOCTYPE svg PUBLIC "-//W3C//DTD SVG 1.1//EN"
 "http://www.w3.org/Graphics/SVG/1.1/DTD/svg11.dtd">
<!-- Generated by graphviz version 5.0.0 (20220707.1540)
 -->
<!-- Title: dependencies Pages: 1 -->
<svg width="322pt" height="247pt"
 viewBox="0.00 0.00 322.00 246.80" xmlns="http://www.w3.org/2000/svg" xmlns:xlink="http://www.w3.org/1999/xlink">
<g id="graph0" class="graph" transform="scale(1 1) rotate(0) translate(4 242.8)">
<title>dependencies</title>
<polygon fill="white" stroke="transparent" points="-4,4 -4,-242.8 318,-242.8 318,4 -4,4"/>
<text text-anchor="middle" x="157" y="-8.2" font-family="sans-serif" font-size="14.00">dependencies</text>
<g id="clust1" class="cluster">
<title>cluster_MenuModule</title>
<polygon fill="none" stroke="black" stroke-dasharray="1,5" points="8,-32.8 8,-230.8 306,-230.8 306,-32.8 8,-32.8"/>
</g>
<g id="clust2" class="cluster">
<title>cluster_MenuModule_declarations</title>
<polygon fill="none" stroke="black" points="168,-40.8 168,-92.8 298,-92.8 298,-40.8 168,-40.8"/>
</g>
<g id="clust4" class="cluster">
<title>cluster_MenuModule_imports</title>
<polygon fill="none" stroke="black" points="16,-40.8 16,-92.8 160,-92.8 160,-40.8 16,-40.8"/>
</g>
<g id="clust5" class="cluster">
<title>cluster_MenuModule_exports</title>
<polygon fill="none" stroke="black" points="92,-170.8 92,-222.8 226,-222.8 226,-170.8 92,-170.8"/>
</g>
<!-- MenuComponent -->
<g id="node1" class="node">
<title>MenuComponent</title>
<polygon fill="#ffffb3" stroke="black" points="289.99,-84.8 176.01,-84.8 176.01,-48.8 289.99,-48.8 289.99,-84.8"/>
<text text-anchor="middle" x="233" y="-62.6" font-family="Times,serif" font-size="14.00">MenuComponent</text>
</g>
<!-- MenuModule -->
<g id="node2" class="node">
<title>MenuModule</title>
<polygon fill="#8dd3c7" stroke="black" points="205.21,-149.8 202.21,-153.8 181.21,-153.8 178.21,-149.8 112.79,-149.8 112.79,-113.8 205.21,-113.8 205.21,-149.8"/>
<text text-anchor="middle" x="159" y="-127.6" font-family="Times,serif" font-size="14.00">MenuModule</text>
</g>
<!-- MenuComponent&#45;&gt;MenuModule -->
<g id="edge1" class="edge">
<title>MenuComponent&#45;&gt;MenuModule</title>
<path fill="none" stroke="black" d="M190.56,-84.91C190.56,-84.91 190.56,-103.79 190.56,-103.79"/>
<polygon fill="black" stroke="black" points="187.06,-103.79 190.56,-113.79 194.06,-103.79 187.06,-103.79"/>
</g>
<!-- MenuComponent  -->
<g id="node4" class="node">
<title>MenuComponent </title>
<polygon fill="#fb8072" stroke="black" points="217.99,-214.8 100.01,-214.8 100.01,-178.8 217.99,-178.8 217.99,-214.8"/>
<text text-anchor="middle" x="159" y="-192.6" font-family="Times,serif" font-size="14.00">MenuComponent </text>
</g>
<!-- MenuModule&#45;&gt;MenuComponent  -->
<g id="edge3" class="edge">
<title>MenuModule&#45;&gt;MenuComponent </title>
<path fill="none" stroke="black" stroke-dasharray="5,2" d="M159,-149.91C159,-149.91 159,-168.79 159,-168.79"/>
<polygon fill="black" stroke="black" points="155.5,-168.79 159,-178.79 162.5,-168.79 155.5,-168.79"/>
</g>
<!-- AppRoutingModule -->
<g id="node3" class="node">
<title>AppRoutingModule</title>
<polygon fill="#8dd3c7" stroke="black" points="152.28,-84.8 149.28,-88.8 128.28,-88.8 125.28,-84.8 23.72,-84.8 23.72,-48.8 152.28,-48.8 152.28,-84.8"/>
<text text-anchor="middle" x="88" y="-62.6" font-family="Times,serif" font-size="14.00">AppRoutingModule</text>
</g>
<!-- AppRoutingModule&#45;&gt;MenuModule -->
<g id="edge2" class="edge">
<title>AppRoutingModule&#45;&gt;MenuModule</title>
<path fill="none" stroke="black" d="M132.64,-84.91C132.64,-84.91 132.64,-103.79 132.64,-103.79"/>
<polygon fill="black" stroke="black" points="129.14,-103.79 132.64,-113.79 136.14,-103.79 129.14,-103.79"/>
</g>
</g>
</svg>
