<?xml version="1.0" encoding="UTF-8" standalone="no"?>
<!DOCTYPE svg PUBLIC "-//W3C//DTD SVG 1.1//EN"
 "http://www.w3.org/Graphics/SVG/1.1/DTD/svg11.dtd">
<!-- Generated by graphviz version 5.0.0 (20220707.1540)
 -->
<!-- Title: dependencies Pages: 1 -->
<svg width="2367pt" height="247pt"
 viewBox="0.00 0.00 2367.00 246.80" xmlns="http://www.w3.org/2000/svg" xmlns:xlink="http://www.w3.org/1999/xlink">
<g id="graph0" class="graph" transform="scale(1 1) rotate(0) translate(4 242.8)">
<title>dependencies</title>
<polygon fill="white" stroke="transparent" points="-4,4 -4,-242.8 2363,-242.8 2363,4 -4,4"/>
<text text-anchor="middle" x="1179.5" y="-8.2" font-family="sans-serif" font-size="14.00">dependencies</text>
<g id="clust1" class="cluster">
<title>cluster_AdminModule</title>
<polygon fill="none" stroke="black" stroke-dasharray="1,5" points="8,-32.8 8,-230.8 2351,-230.8 2351,-32.8 8,-32.8"/>
</g>
<g id="clust2" class="cluster">
<title>cluster_AdminModule_declarations</title>
<polygon fill="none" stroke="black" points="609,-40.8 609,-92.8 2343,-92.8 2343,-40.8 609,-40.8"/>
</g>
<g id="clust15" class="cluster">
<title>cluster_AdminModule_providers</title>
<polygon fill="none" stroke="black" points="168,-40.8 168,-92.8 601,-92.8 601,-40.8 168,-40.8"/>
</g>
<g id="clust13" class="cluster">
<title>cluster_AdminModule_exports</title>
<polygon fill="none" stroke="black" points="396,-170.8 396,-222.8 1861,-222.8 1861,-170.8 396,-170.8"/>
</g>
<g id="clust12" class="cluster">
<title>cluster_AdminModule_imports</title>
<polygon fill="none" stroke="black" points="16,-40.8 16,-92.8 160,-92.8 160,-40.8 16,-40.8"/>
</g>
<!-- AttributesAdminComponent -->
<g id="node1" class="node">
<title>AttributesAdminComponent</title>
<polygon fill="#ffffb3" stroke="black" points="2335.21,-84.8 2158.79,-84.8 2158.79,-48.8 2335.21,-48.8 2335.21,-84.8"/>
<text text-anchor="middle" x="2247" y="-62.6" font-family="Times,serif" font-size="14.00">AttributesAdminComponent</text>
</g>
<!-- AdminModule -->
<g id="node10" class="node">
<title>AdminModule</title>
<polygon fill="#8dd3c7" stroke="black" points="1138.44,-149.8 1135.44,-153.8 1114.44,-153.8 1111.44,-149.8 1039.56,-149.8 1039.56,-113.8 1138.44,-113.8 1138.44,-149.8"/>
<text text-anchor="middle" x="1089" y="-127.6" font-family="Times,serif" font-size="14.00">AdminModule</text>
</g>
<!-- AttributesAdminComponent&#45;&gt;AdminModule -->
<g id="edge1" class="edge">
<title>AttributesAdminComponent&#45;&gt;AdminModule</title>
<path fill="none" stroke="black" d="M2247,-85.11C2247,-104.95 2247,-133.8 2247,-133.8 2247,-133.8 1148.39,-133.8 1148.39,-133.8"/>
<polygon fill="black" stroke="black" points="1148.39,-130.3 1138.39,-133.8 1148.39,-137.3 1148.39,-130.3"/>
</g>
<!-- FilterSearchComponent -->
<g id="node2" class="node">
<title>FilterSearchComponent</title>
<polygon fill="#ffffb3" stroke="black" points="2140.75,-84.8 1991.25,-84.8 1991.25,-48.8 2140.75,-48.8 2140.75,-84.8"/>
<text text-anchor="middle" x="2066" y="-62.6" font-family="Times,serif" font-size="14.00">FilterSearchComponent</text>
</g>
<!-- FilterSearchComponent&#45;&gt;AdminModule -->
<g id="edge2" class="edge">
<title>FilterSearchComponent&#45;&gt;AdminModule</title>
<path fill="none" stroke="black" d="M2066,-85.02C2066,-103.63 2066,-129.8 2066,-129.8 2066,-129.8 1148.46,-129.8 1148.46,-129.8"/>
<polygon fill="black" stroke="black" points="1148.46,-126.3 1138.46,-129.8 1148.46,-133.3 1148.46,-126.3"/>
</g>
<!-- ProjectAdminAttributeCreatorComponent -->
<g id="node3" class="node">
<title>ProjectAdminAttributeCreatorComponent</title>
<polygon fill="#ffffb3" stroke="black" points="1973.4,-84.8 1720.6,-84.8 1720.6,-48.8 1973.4,-48.8 1973.4,-84.8"/>
<text text-anchor="middle" x="1847" y="-62.6" font-family="Times,serif" font-size="14.00">ProjectAdminAttributeCreatorComponent</text>
</g>
<!-- ProjectAdminAttributeCreatorComponent&#45;&gt;AdminModule -->
<g id="edge3" class="edge">
<title>ProjectAdminAttributeCreatorComponent&#45;&gt;AdminModule</title>
<path fill="none" stroke="black" d="M1786.83,-84.82C1786.83,-102.17 1786.83,-125.8 1786.83,-125.8 1786.83,-125.8 1148.35,-125.8 1148.35,-125.8"/>
<polygon fill="black" stroke="black" points="1148.35,-122.3 1138.35,-125.8 1148.35,-129.3 1148.35,-122.3"/>
</g>
<!-- ProjectsAdminComponent -->
<g id="node4" class="node">
<title>ProjectsAdminComponent</title>
<polygon fill="#ffffb3" stroke="black" points="1702.82,-84.8 1537.18,-84.8 1537.18,-48.8 1702.82,-48.8 1702.82,-84.8"/>
<text text-anchor="middle" x="1620" y="-62.6" font-family="Times,serif" font-size="14.00">ProjectsAdminComponent</text>
</g>
<!-- ProjectsAdminComponent&#45;&gt;AdminModule -->
<g id="edge4" class="edge">
<title>ProjectsAdminComponent&#45;&gt;AdminModule</title>
<path fill="none" stroke="black" d="M1596.14,-84.81C1596.14,-100.85 1596.14,-121.8 1596.14,-121.8 1596.14,-121.8 1148.55,-121.8 1148.55,-121.8"/>
<polygon fill="black" stroke="black" points="1148.55,-118.3 1138.55,-121.8 1148.55,-125.3 1148.55,-118.3"/>
</g>
<!-- ProjectsAdminCreatorComponent -->
<g id="node5" class="node">
<title>ProjectsAdminCreatorComponent</title>
<polygon fill="#ffffb3" stroke="black" points="1519.8,-84.8 1312.2,-84.8 1312.2,-48.8 1519.8,-48.8 1519.8,-84.8"/>
<text text-anchor="middle" x="1416" y="-62.6" font-family="Times,serif" font-size="14.00">ProjectsAdminCreatorComponent</text>
</g>
<!-- ProjectsAdminCreatorComponent&#45;&gt;AdminModule -->
<g id="edge5" class="edge">
<title>ProjectsAdminCreatorComponent&#45;&gt;AdminModule</title>
<path fill="none" stroke="black" d="M1346.88,-84.92C1346.88,-99.58 1346.88,-117.8 1346.88,-117.8 1346.88,-117.8 1148.42,-117.8 1148.42,-117.8"/>
<polygon fill="black" stroke="black" points="1148.42,-114.3 1138.42,-117.8 1148.42,-121.3 1148.42,-114.3"/>
</g>
<!-- ProjectsAdminDetailComponent -->
<g id="node6" class="node">
<title>ProjectsAdminDetailComponent</title>
<polygon fill="#ffffb3" stroke="black" points="1294.53,-84.8 1095.47,-84.8 1095.47,-48.8 1294.53,-48.8 1294.53,-84.8"/>
<text text-anchor="middle" x="1195" y="-62.6" font-family="Times,serif" font-size="14.00">ProjectsAdminDetailComponent</text>
</g>
<!-- ProjectsAdminDetailComponent&#45;&gt;AdminModule -->
<g id="edge6" class="edge">
<title>ProjectsAdminDetailComponent&#45;&gt;AdminModule</title>
<path fill="none" stroke="black" d="M1116.73,-84.91C1116.73,-84.91 1116.73,-103.79 1116.73,-103.79"/>
<polygon fill="black" stroke="black" points="1113.23,-103.79 1116.73,-113.79 1120.23,-103.79 1113.23,-103.79"/>
</g>
<!-- ProjectsAdminVueComponent -->
<g id="node7" class="node">
<title>ProjectsAdminVueComponent</title>
<polygon fill="#ffffb3" stroke="black" points="1077.15,-84.8 888.85,-84.8 888.85,-48.8 1077.15,-48.8 1077.15,-84.8"/>
<text text-anchor="middle" x="983" y="-62.6" font-family="Times,serif" font-size="14.00">ProjectsAdminVueComponent</text>
</g>
<!-- ProjectsAdminVueComponent&#45;&gt;AdminModule -->
<g id="edge7" class="edge">
<title>ProjectsAdminVueComponent&#45;&gt;AdminModule</title>
<path fill="none" stroke="black" d="M1058.55,-84.91C1058.55,-84.91 1058.55,-103.79 1058.55,-103.79"/>
<polygon fill="black" stroke="black" points="1055.05,-103.79 1058.55,-113.79 1062.05,-103.79 1055.05,-103.79"/>
</g>
<!-- SearchFilterPipe -->
<g id="node8" class="node">
<title>SearchFilterPipe</title>
<polygon fill="#ffffb3" stroke="black" points="870.81,-84.8 761.19,-84.8 761.19,-48.8 870.81,-48.8 870.81,-84.8"/>
<text text-anchor="middle" x="816" y="-62.6" font-family="Times,serif" font-size="14.00">SearchFilterPipe</text>
</g>
<!-- SearchFilterPipe&#45;&gt;AdminModule -->
<g id="edge8" class="edge">
<title>SearchFilterPipe&#45;&gt;AdminModule</title>
<path fill="none" stroke="black" d="M816.57,-84.92C816.57,-99.58 816.57,-117.8 816.57,-117.8 816.57,-117.8 1029.66,-117.8 1029.66,-117.8"/>
<polygon fill="black" stroke="black" points="1029.66,-121.3 1039.66,-117.8 1029.66,-114.3 1029.66,-121.3"/>
</g>
<!-- SettingsComponent -->
<g id="node9" class="node">
<title>SettingsComponent</title>
<polygon fill="#ffffb3" stroke="black" points="743.45,-84.8 616.55,-84.8 616.55,-48.8 743.45,-48.8 743.45,-84.8"/>
<text text-anchor="middle" x="680" y="-62.6" font-family="Times,serif" font-size="14.00">SettingsComponent</text>
</g>
<!-- SettingsComponent&#45;&gt;AdminModule -->
<g id="edge9" class="edge">
<title>SettingsComponent&#45;&gt;AdminModule</title>
<path fill="none" stroke="black" d="M701.07,-84.81C701.07,-100.85 701.07,-121.8 701.07,-121.8 701.07,-121.8 1029.47,-121.8 1029.47,-121.8"/>
<polygon fill="black" stroke="black" points="1029.48,-125.3 1039.47,-121.8 1029.47,-118.3 1029.48,-125.3"/>
</g>
<!-- AttributesAdminComponent  -->
<g id="node12" class="node">
<title>AttributesAdminComponent </title>
<polygon fill="#fb8072" stroke="black" points="1852.71,-214.8 1673.29,-214.8 1673.29,-178.8 1852.71,-178.8 1852.71,-214.8"/>
<text text-anchor="middle" x="1763" y="-192.6" font-family="Times,serif" font-size="14.00">AttributesAdminComponent </text>
</g>
<!-- AdminModule&#45;&gt;AttributesAdminComponent  -->
<g id="edge11" class="edge">
<title>AdminModule&#45;&gt;AttributesAdminComponent </title>
<path fill="none" stroke="black" stroke-dasharray="5,2" d="M1138.27,-137.8C1281.53,-137.8 1687.9,-137.8 1687.9,-137.8 1687.9,-137.8 1687.9,-168.78 1687.9,-168.78"/>
<polygon fill="black" stroke="black" points="1684.4,-168.78 1687.9,-178.78 1691.4,-168.78 1684.4,-168.78"/>
</g>
<!-- ProjectAdminAttributeCreatorComponent  -->
<g id="node13" class="node">
<title>ProjectAdminAttributeCreatorComponent </title>
<polygon fill="#fb8072" stroke="black" points="1654.9,-214.8 1399.1,-214.8 1399.1,-178.8 1654.9,-178.8 1654.9,-214.8"/>
<text text-anchor="middle" x="1527" y="-192.6" font-family="Times,serif" font-size="14.00">ProjectAdminAttributeCreatorComponent </text>
</g>
<!-- AdminModule&#45;&gt;ProjectAdminAttributeCreatorComponent  -->
<g id="edge12" class="edge">
<title>AdminModule&#45;&gt;ProjectAdminAttributeCreatorComponent </title>
<path fill="none" stroke="black" stroke-dasharray="5,2" d="M1138.56,-141.8C1239.48,-141.8 1459.35,-141.8 1459.35,-141.8 1459.35,-141.8 1459.35,-168.79 1459.35,-168.79"/>
<polygon fill="black" stroke="black" points="1455.85,-168.79 1459.35,-178.79 1462.85,-168.79 1455.85,-168.79"/>
</g>
<!-- ProjectsAdminComponent  -->
<g id="node14" class="node">
<title>ProjectsAdminComponent </title>
<polygon fill="#fb8072" stroke="black" points="1381.32,-214.8 1212.68,-214.8 1212.68,-178.8 1381.32,-178.8 1381.32,-214.8"/>
<text text-anchor="middle" x="1297" y="-192.6" font-family="Times,serif" font-size="14.00">ProjectsAdminComponent </text>
</g>
<!-- AdminModule&#45;&gt;ProjectsAdminComponent  -->
<g id="edge13" class="edge">
<title>AdminModule&#45;&gt;ProjectsAdminComponent </title>
<path fill="none" stroke="black" stroke-dasharray="5,2" d="M1138.41,-145.8C1186.92,-145.8 1253.68,-145.8 1253.68,-145.8 1253.68,-145.8 1253.68,-168.68 1253.68,-168.68"/>
<polygon fill="black" stroke="black" points="1250.18,-168.68 1253.68,-178.68 1257.18,-168.68 1250.18,-168.68"/>
</g>
<!-- ProjectsAdminCreatorComponent  -->
<g id="node15" class="node">
<title>ProjectsAdminCreatorComponent </title>
<polygon fill="#fb8072" stroke="black" points="1194.3,-214.8 983.7,-214.8 983.7,-178.8 1194.3,-178.8 1194.3,-214.8"/>
<text text-anchor="middle" x="1089" y="-192.6" font-family="Times,serif" font-size="14.00">ProjectsAdminCreatorComponent </text>
</g>
<!-- AdminModule&#45;&gt;ProjectsAdminCreatorComponent  -->
<g id="edge14" class="edge">
<title>AdminModule&#45;&gt;ProjectsAdminCreatorComponent </title>
<path fill="none" stroke="black" stroke-dasharray="5,2" d="M1089,-149.91C1089,-149.91 1089,-168.79 1089,-168.79"/>
<polygon fill="black" stroke="black" points="1085.5,-168.79 1089,-178.79 1092.5,-168.79 1085.5,-168.79"/>
</g>
<!-- ProjectsAdminDetailComponent  -->
<g id="node16" class="node">
<title>ProjectsAdminDetailComponent </title>
<polygon fill="#fb8072" stroke="black" points="965.53,-214.8 762.47,-214.8 762.47,-178.8 965.53,-178.8 965.53,-214.8"/>
<text text-anchor="middle" x="864" y="-192.6" font-family="Times,serif" font-size="14.00">ProjectsAdminDetailComponent </text>
</g>
<!-- AdminModule&#45;&gt;ProjectsAdminDetailComponent  -->
<g id="edge15" class="edge">
<title>AdminModule&#45;&gt;ProjectsAdminDetailComponent </title>
<path fill="none" stroke="black" stroke-dasharray="5,2" d="M1039.54,-145.8C991.93,-145.8 927.1,-145.8 927.1,-145.8 927.1,-145.8 927.1,-168.68 927.1,-168.68"/>
<polygon fill="black" stroke="black" points="923.6,-168.68 927.1,-178.68 930.6,-168.68 923.6,-168.68"/>
</g>
<!-- ProjectsAdminVueComponent  -->
<g id="node17" class="node">
<title>ProjectsAdminVueComponent </title>
<polygon fill="#fb8072" stroke="black" points="744.15,-214.8 551.85,-214.8 551.85,-178.8 744.15,-178.8 744.15,-214.8"/>
<text text-anchor="middle" x="648" y="-192.6" font-family="Times,serif" font-size="14.00">ProjectsAdminVueComponent </text>
</g>
<!-- AdminModule&#45;&gt;ProjectsAdminVueComponent  -->
<g id="edge16" class="edge">
<title>AdminModule&#45;&gt;ProjectsAdminVueComponent </title>
<path fill="none" stroke="black" stroke-dasharray="5,2" d="M1039.66,-141.8C926.7,-141.8 658.93,-141.8 658.93,-141.8 658.93,-141.8 658.93,-168.79 658.93,-168.79"/>
<polygon fill="black" stroke="black" points="655.43,-168.79 658.93,-178.79 662.43,-168.79 655.43,-168.79"/>
</g>
<!-- SettingsComponent  -->
<g id="node18" class="node">
<title>SettingsComponent </title>
<polygon fill="#fb8072" stroke="black" points="533.95,-214.8 404.05,-214.8 404.05,-178.8 533.95,-178.8 533.95,-214.8"/>
<text text-anchor="middle" x="469" y="-192.6" font-family="Times,serif" font-size="14.00">SettingsComponent </text>
</g>
<!-- AdminModule&#45;&gt;SettingsComponent  -->
<g id="edge17" class="edge">
<title>AdminModule&#45;&gt;SettingsComponent </title>
<path fill="none" stroke="black" stroke-dasharray="5,2" d="M1039.57,-137.8C892.69,-137.8 469,-137.8 469,-137.8 469,-137.8 469,-168.78 469,-168.78"/>
<polygon fill="black" stroke="black" points="465.5,-168.78 469,-178.78 472.5,-168.78 465.5,-168.78"/>
</g>
<!-- AppRoutingModule -->
<g id="node11" class="node">
<title>AppRoutingModule</title>
<polygon fill="#8dd3c7" stroke="black" points="152.28,-84.8 149.28,-88.8 128.28,-88.8 125.28,-84.8 23.72,-84.8 23.72,-48.8 152.28,-48.8 152.28,-84.8"/>
<text text-anchor="middle" x="88" y="-62.6" font-family="Times,serif" font-size="14.00">AppRoutingModule</text>
</g>
<!-- AppRoutingModule&#45;&gt;AdminModule -->
<g id="edge10" class="edge">
<title>AppRoutingModule&#45;&gt;AdminModule</title>
<path fill="none" stroke="black" d="M88,-85.11C88,-104.95 88,-133.8 88,-133.8 88,-133.8 1029.7,-133.8 1029.7,-133.8"/>
<polygon fill="black" stroke="black" points="1029.7,-137.3 1039.7,-133.8 1029.7,-130.3 1029.7,-137.3"/>
</g>
<!-- AttributesAdminService -->
<g id="node19" class="node">
<title>AttributesAdminService</title>
<ellipse fill="#fdb462" stroke="black" cx="488" cy="-66.8" rx="105.38" ry="18"/>
<text text-anchor="middle" x="488" y="-62.6" font-family="Times,serif" font-size="14.00">AttributesAdminService</text>
</g>
<!-- AttributesAdminService&#45;&gt;AdminModule -->
<g id="edge18" class="edge">
<title>AttributesAdminService&#45;&gt;AdminModule</title>
<path fill="none" stroke="black" d="M572.68,-77.62C572.68,-94.65 572.68,-125.8 572.68,-125.8 572.68,-125.8 1029.49,-125.8 1029.49,-125.8"/>
<polygon fill="black" stroke="black" points="1029.49,-129.3 1039.49,-125.8 1029.49,-122.3 1029.49,-129.3"/>
</g>
<!-- ProjectAdminService -->
<g id="node20" class="node">
<title>ProjectAdminService</title>
<ellipse fill="#fdb462" stroke="black" cx="270" cy="-66.8" rx="94.34" ry="18"/>
<text text-anchor="middle" x="270" y="-62.6" font-family="Times,serif" font-size="14.00">ProjectAdminService</text>
</g>
<!-- ProjectAdminService&#45;&gt;AdminModule -->
<g id="edge19" class="edge">
<title>ProjectAdminService&#45;&gt;AdminModule</title>
<path fill="none" stroke="black" d="M270,-85.02C270,-103.63 270,-129.8 270,-129.8 270,-129.8 1029.61,-129.8 1029.61,-129.8"/>
<polygon fill="black" stroke="black" points="1029.61,-133.3 1039.61,-129.8 1029.61,-126.3 1029.61,-133.3"/>
</g>
</g>
</svg>
