<?xml version="1.0" encoding="UTF-8" standalone="no"?>
<!DOCTYPE svg PUBLIC "-//W3C//DTD SVG 1.1//EN"
 "http://www.w3.org/Graphics/SVG/1.1/DTD/svg11.dtd">
<!-- Generated by graphviz version 5.0.0 (20220707.1540)
 -->
<!-- Title: dependencies Pages: 1 -->
<svg width="2072pt" height="247pt"
 viewBox="0.00 0.00 2072.00 246.80" xmlns="http://www.w3.org/2000/svg" xmlns:xlink="http://www.w3.org/1999/xlink">
<g id="graph0" class="graph" transform="scale(1 1) rotate(0) translate(4 242.8)">
<title>dependencies</title>
<polygon fill="white" stroke="transparent" points="-4,4 -4,-242.8 2068,-242.8 2068,4 -4,4"/>
<text text-anchor="middle" x="1032" y="-8.2" font-family="sans-serif" font-size="14.00">dependencies</text>
<g id="clust1" class="cluster">
<title>cluster_AdminModule</title>
<polygon fill="none" stroke="black" stroke-dasharray="1,5" points="8,-32.8 8,-230.8 2056,-230.8 2056,-32.8 8,-32.8"/>
</g>
<g id="clust2" class="cluster">
<title>cluster_AdminModule_declarations</title>
<polygon fill="none" stroke="black" points="609,-40.8 609,-92.8 2048,-92.8 2048,-40.8 609,-40.8"/>
</g>
<g id="clust10" class="cluster">
<title>cluster_AdminModule_imports</title>
<polygon fill="none" stroke="black" points="457,-40.8 457,-92.8 601,-92.8 601,-40.8 457,-40.8"/>
</g>
<g id="clust11" class="cluster">
<title>cluster_AdminModule_exports</title>
<polygon fill="none" stroke="black" points="269,-170.8 269,-222.8 1734,-222.8 1734,-170.8 269,-170.8"/>
</g>
<g id="clust13" class="cluster">
<title>cluster_AdminModule_providers</title>
<polygon fill="none" stroke="black" points="16,-40.8 16,-92.8 449,-92.8 449,-40.8 16,-40.8"/>
</g>
<!-- AttributesAdminComponent -->
<g id="node1" class="node">
<title>AttributesAdminComponent</title>
<polygon fill="#ffffb3" stroke="black" points="2040.21,-84.8 1863.79,-84.8 1863.79,-48.8 2040.21,-48.8 2040.21,-84.8"/>
<text text-anchor="middle" x="1952" y="-62.6" font-family="Times,serif" font-size="14.00">AttributesAdminComponent</text>
</g>
<!-- AdminModule -->
<g id="node8" class="node">
<title>AdminModule</title>
<polygon fill="#8dd3c7" stroke="black" points="1011.44,-149.8 1008.44,-153.8 987.44,-153.8 984.44,-149.8 912.56,-149.8 912.56,-113.8 1011.44,-113.8 1011.44,-149.8"/>
<text text-anchor="middle" x="962" y="-127.6" font-family="Times,serif" font-size="14.00">AdminModule</text>
</g>
<!-- AttributesAdminComponent&#45;&gt;AdminModule -->
<g id="edge1" class="edge">
<title>AttributesAdminComponent&#45;&gt;AdminModule</title>
<path fill="none" stroke="black" d="M1952,-84.91C1952,-104.14 1952,-131.8 1952,-131.8 1952,-131.8 1021.43,-131.8 1021.43,-131.8"/>
<polygon fill="black" stroke="black" points="1021.43,-128.3 1011.43,-131.8 1021.43,-135.3 1021.43,-128.3"/>
</g>
<!-- ProjectAdminAttributeCreatorComponent -->
<g id="node2" class="node">
<title>ProjectAdminAttributeCreatorComponent</title>
<polygon fill="#ffffb3" stroke="black" points="1846.4,-84.8 1593.6,-84.8 1593.6,-48.8 1846.4,-48.8 1846.4,-84.8"/>
<text text-anchor="middle" x="1720" y="-62.6" font-family="Times,serif" font-size="14.00">ProjectAdminAttributeCreatorComponent</text>
</g>
<!-- ProjectAdminAttributeCreatorComponent&#45;&gt;AdminModule -->
<g id="edge2" class="edge">
<title>ProjectAdminAttributeCreatorComponent&#45;&gt;AdminModule</title>
<path fill="none" stroke="black" d="M1659.83,-85.1C1659.83,-103.07 1659.83,-127.8 1659.83,-127.8 1659.83,-127.8 1021.35,-127.8 1021.35,-127.8"/>
<polygon fill="black" stroke="black" points="1021.35,-124.3 1011.35,-127.8 1021.35,-131.3 1021.35,-124.3"/>
</g>
<!-- ProjectsAdminComponent -->
<g id="node3" class="node">
<title>ProjectsAdminComponent</title>
<polygon fill="#ffffb3" stroke="black" points="1575.82,-84.8 1410.18,-84.8 1410.18,-48.8 1575.82,-48.8 1575.82,-84.8"/>
<text text-anchor="middle" x="1493" y="-62.6" font-family="Times,serif" font-size="14.00">ProjectsAdminComponent</text>
</g>
<!-- ProjectsAdminComponent&#45;&gt;AdminModule -->
<g id="edge3" class="edge">
<title>ProjectsAdminComponent&#45;&gt;AdminModule</title>
<path fill="none" stroke="black" d="M1469.14,-84.83C1469.14,-101.2 1469.14,-122.8 1469.14,-122.8 1469.14,-122.8 1021.55,-122.8 1021.55,-122.8"/>
<polygon fill="black" stroke="black" points="1021.55,-119.3 1011.55,-122.8 1021.55,-126.3 1021.55,-119.3"/>
</g>
<!-- ProjectsAdminCreatorComponent -->
<g id="node4" class="node">
<title>ProjectsAdminCreatorComponent</title>
<polygon fill="#ffffb3" stroke="black" points="1392.8,-84.8 1185.2,-84.8 1185.2,-48.8 1392.8,-48.8 1392.8,-84.8"/>
<text text-anchor="middle" x="1289" y="-62.6" font-family="Times,serif" font-size="14.00">ProjectsAdminCreatorComponent</text>
</g>
<!-- ProjectsAdminCreatorComponent&#45;&gt;AdminModule -->
<g id="edge4" class="edge">
<title>ProjectsAdminCreatorComponent&#45;&gt;AdminModule</title>
<path fill="none" stroke="black" d="M1219.88,-84.99C1219.88,-99.98 1219.88,-118.8 1219.88,-118.8 1219.88,-118.8 1021.42,-118.8 1021.42,-118.8"/>
<polygon fill="black" stroke="black" points="1021.42,-115.3 1011.42,-118.8 1021.42,-122.3 1021.42,-115.3"/>
</g>
<!-- ProjectsAdminDetailComponent -->
<g id="node5" class="node">
<title>ProjectsAdminDetailComponent</title>
<polygon fill="#ffffb3" stroke="black" points="1167.53,-84.8 968.47,-84.8 968.47,-48.8 1167.53,-48.8 1167.53,-84.8"/>
<text text-anchor="middle" x="1068" y="-62.6" font-family="Times,serif" font-size="14.00">ProjectsAdminDetailComponent</text>
</g>
<!-- ProjectsAdminDetailComponent&#45;&gt;AdminModule -->
<g id="edge5" class="edge">
<title>ProjectsAdminDetailComponent&#45;&gt;AdminModule</title>
<path fill="none" stroke="black" d="M989.73,-84.91C989.73,-84.91 989.73,-103.79 989.73,-103.79"/>
<polygon fill="black" stroke="black" points="986.23,-103.79 989.73,-113.79 993.23,-103.79 986.23,-103.79"/>
</g>
<!-- ProjectsAdminVueComponent -->
<g id="node6" class="node">
<title>ProjectsAdminVueComponent</title>
<polygon fill="#ffffb3" stroke="black" points="950.15,-84.8 761.85,-84.8 761.85,-48.8 950.15,-48.8 950.15,-84.8"/>
<text text-anchor="middle" x="856" y="-62.6" font-family="Times,serif" font-size="14.00">ProjectsAdminVueComponent</text>
</g>
<!-- ProjectsAdminVueComponent&#45;&gt;AdminModule -->
<g id="edge6" class="edge">
<title>ProjectsAdminVueComponent&#45;&gt;AdminModule</title>
<path fill="none" stroke="black" d="M931.55,-84.91C931.55,-84.91 931.55,-103.79 931.55,-103.79"/>
<polygon fill="black" stroke="black" points="928.05,-103.79 931.55,-113.79 935.05,-103.79 928.05,-103.79"/>
</g>
<!-- SettingsComponent -->
<g id="node7" class="node">
<title>SettingsComponent</title>
<polygon fill="#ffffb3" stroke="black" points="743.45,-84.8 616.55,-84.8 616.55,-48.8 743.45,-48.8 743.45,-84.8"/>
<text text-anchor="middle" x="680" y="-62.6" font-family="Times,serif" font-size="14.00">SettingsComponent</text>
</g>
<!-- SettingsComponent&#45;&gt;AdminModule -->
<g id="edge7" class="edge">
<title>SettingsComponent&#45;&gt;AdminModule</title>
<path fill="none" stroke="black" d="M689.35,-84.99C689.35,-99.98 689.35,-118.8 689.35,-118.8 689.35,-118.8 902.63,-118.8 902.63,-118.8"/>
<polygon fill="black" stroke="black" points="902.63,-122.3 912.63,-118.8 902.63,-115.3 902.63,-122.3"/>
</g>
<!-- AttributesAdminComponent  -->
<g id="node10" class="node">
<title>AttributesAdminComponent </title>
<polygon fill="#fb8072" stroke="black" points="1725.71,-214.8 1546.29,-214.8 1546.29,-178.8 1725.71,-178.8 1725.71,-214.8"/>
<text text-anchor="middle" x="1636" y="-192.6" font-family="Times,serif" font-size="14.00">AttributesAdminComponent </text>
</g>
<!-- AdminModule&#45;&gt;AttributesAdminComponent  -->
<g id="edge9" class="edge">
<title>AdminModule&#45;&gt;AttributesAdminComponent </title>
<path fill="none" stroke="black" stroke-dasharray="5,2" d="M1011.27,-136.8C1154.53,-136.8 1560.9,-136.8 1560.9,-136.8 1560.9,-136.8 1560.9,-168.8 1560.9,-168.8"/>
<polygon fill="black" stroke="black" points="1557.4,-168.8 1560.9,-178.8 1564.4,-168.8 1557.4,-168.8"/>
</g>
<!-- ProjectAdminAttributeCreatorComponent  -->
<g id="node11" class="node">
<title>ProjectAdminAttributeCreatorComponent </title>
<polygon fill="#fb8072" stroke="black" points="1527.9,-214.8 1272.1,-214.8 1272.1,-178.8 1527.9,-178.8 1527.9,-214.8"/>
<text text-anchor="middle" x="1400" y="-192.6" font-family="Times,serif" font-size="14.00">ProjectAdminAttributeCreatorComponent </text>
</g>
<!-- AdminModule&#45;&gt;ProjectAdminAttributeCreatorComponent  -->
<g id="edge10" class="edge">
<title>AdminModule&#45;&gt;ProjectAdminAttributeCreatorComponent </title>
<path fill="none" stroke="black" stroke-dasharray="5,2" d="M1011.56,-140.8C1112.48,-140.8 1332.35,-140.8 1332.35,-140.8 1332.35,-140.8 1332.35,-168.77 1332.35,-168.77"/>
<polygon fill="black" stroke="black" points="1328.85,-168.77 1332.35,-178.77 1335.85,-168.77 1328.85,-168.77"/>
</g>
<!-- ProjectsAdminComponent  -->
<g id="node12" class="node">
<title>ProjectsAdminComponent </title>
<polygon fill="#fb8072" stroke="black" points="1254.32,-214.8 1085.68,-214.8 1085.68,-178.8 1254.32,-178.8 1254.32,-214.8"/>
<text text-anchor="middle" x="1170" y="-192.6" font-family="Times,serif" font-size="14.00">ProjectsAdminComponent </text>
</g>
<!-- AdminModule&#45;&gt;ProjectsAdminComponent  -->
<g id="edge11" class="edge">
<title>AdminModule&#45;&gt;ProjectsAdminComponent </title>
<path fill="none" stroke="black" stroke-dasharray="5,2" d="M1011.41,-145.8C1059.92,-145.8 1126.68,-145.8 1126.68,-145.8 1126.68,-145.8 1126.68,-168.68 1126.68,-168.68"/>
<polygon fill="black" stroke="black" points="1123.18,-168.68 1126.68,-178.68 1130.18,-168.68 1123.18,-168.68"/>
</g>
<!-- ProjectsAdminCreatorComponent  -->
<g id="node13" class="node">
<title>ProjectsAdminCreatorComponent </title>
<polygon fill="#fb8072" stroke="black" points="1067.3,-214.8 856.7,-214.8 856.7,-178.8 1067.3,-178.8 1067.3,-214.8"/>
<text text-anchor="middle" x="962" y="-192.6" font-family="Times,serif" font-size="14.00">ProjectsAdminCreatorComponent </text>
</g>
<!-- AdminModule&#45;&gt;ProjectsAdminCreatorComponent  -->
<g id="edge12" class="edge">
<title>AdminModule&#45;&gt;ProjectsAdminCreatorComponent </title>
<path fill="none" stroke="black" stroke-dasharray="5,2" d="M962,-149.91C962,-149.91 962,-168.79 962,-168.79"/>
<polygon fill="black" stroke="black" points="958.5,-168.79 962,-178.79 965.5,-168.79 958.5,-168.79"/>
</g>
<!-- ProjectsAdminDetailComponent  -->
<g id="node14" class="node">
<title>ProjectsAdminDetailComponent </title>
<polygon fill="#fb8072" stroke="black" points="838.53,-214.8 635.47,-214.8 635.47,-178.8 838.53,-178.8 838.53,-214.8"/>
<text text-anchor="middle" x="737" y="-192.6" font-family="Times,serif" font-size="14.00">ProjectsAdminDetailComponent </text>
</g>
<!-- AdminModule&#45;&gt;ProjectsAdminDetailComponent  -->
<g id="edge13" class="edge">
<title>AdminModule&#45;&gt;ProjectsAdminDetailComponent </title>
<path fill="none" stroke="black" stroke-dasharray="5,2" d="M912.54,-145.8C864.93,-145.8 800.1,-145.8 800.1,-145.8 800.1,-145.8 800.1,-168.68 800.1,-168.68"/>
<polygon fill="black" stroke="black" points="796.6,-168.68 800.1,-178.68 803.6,-168.68 796.6,-168.68"/>
</g>
<!-- ProjectsAdminVueComponent  -->
<g id="node15" class="node">
<title>ProjectsAdminVueComponent </title>
<polygon fill="#fb8072" stroke="black" points="617.15,-214.8 424.85,-214.8 424.85,-178.8 617.15,-178.8 617.15,-214.8"/>
<text text-anchor="middle" x="521" y="-192.6" font-family="Times,serif" font-size="14.00">ProjectsAdminVueComponent </text>
</g>
<!-- AdminModule&#45;&gt;ProjectsAdminVueComponent  -->
<g id="edge14" class="edge">
<title>AdminModule&#45;&gt;ProjectsAdminVueComponent </title>
<path fill="none" stroke="black" stroke-dasharray="5,2" d="M912.75,-140.8C814.84,-140.8 605.08,-140.8 605.08,-140.8 605.08,-140.8 605.08,-168.77 605.08,-168.77"/>
<polygon fill="black" stroke="black" points="601.58,-168.77 605.08,-178.77 608.58,-168.77 601.58,-168.77"/>
</g>
<!-- SettingsComponent  -->
<g id="node16" class="node">
<title>SettingsComponent </title>
<polygon fill="#fb8072" stroke="black" points="406.95,-214.8 277.05,-214.8 277.05,-178.8 406.95,-178.8 406.95,-214.8"/>
<text text-anchor="middle" x="342" y="-192.6" font-family="Times,serif" font-size="14.00">SettingsComponent </text>
</g>
<!-- AdminModule&#45;&gt;SettingsComponent  -->
<g id="edge15" class="edge">
<title>AdminModule&#45;&gt;SettingsComponent </title>
<path fill="none" stroke="black" stroke-dasharray="5,2" d="M912.57,-136.8C765.69,-136.8 342,-136.8 342,-136.8 342,-136.8 342,-168.8 342,-168.8"/>
<polygon fill="black" stroke="black" points="338.5,-168.8 342,-178.8 345.5,-168.8 338.5,-168.8"/>
</g>
<!-- AppRoutingModule -->
<g id="node9" class="node">
<title>AppRoutingModule</title>
<polygon fill="#8dd3c7" stroke="black" points="593.28,-84.8 590.28,-88.8 569.28,-88.8 566.28,-84.8 464.72,-84.8 464.72,-48.8 593.28,-48.8 593.28,-84.8"/>
<text text-anchor="middle" x="529" y="-62.6" font-family="Times,serif" font-size="14.00">AppRoutingModule</text>
</g>
<!-- AppRoutingModule&#45;&gt;AdminModule -->
<g id="edge8" class="edge">
<title>AppRoutingModule&#45;&gt;AdminModule</title>
<path fill="none" stroke="black" d="M529,-84.83C529,-101.2 529,-122.8 529,-122.8 529,-122.8 902.75,-122.8 902.75,-122.8"/>
<polygon fill="black" stroke="black" points="902.75,-126.3 912.75,-122.8 902.75,-119.3 902.75,-126.3"/>
</g>
<!-- AttributesAdminService -->
<g id="node17" class="node">
<title>AttributesAdminService</title>
<ellipse fill="#fdb462" stroke="black" cx="336" cy="-66.8" rx="105.38" ry="18"/>
<text text-anchor="middle" x="336" y="-62.6" font-family="Times,serif" font-size="14.00">AttributesAdminService</text>
</g>
<!-- AttributesAdminService&#45;&gt;AdminModule -->
<g id="edge16" class="edge">
<title>AttributesAdminService&#45;&gt;AdminModule</title>
<path fill="none" stroke="black" d="M433.18,-73.8C433.18,-89.82 433.18,-127.8 433.18,-127.8 433.18,-127.8 902.73,-127.8 902.73,-127.8"/>
<polygon fill="black" stroke="black" points="902.73,-131.3 912.73,-127.8 902.73,-124.3 902.73,-131.3"/>
</g>
<!-- ProjectAdminService -->
<g id="node18" class="node">
<title>ProjectAdminService</title>
<ellipse fill="#fdb462" stroke="black" cx="118" cy="-66.8" rx="94.34" ry="18"/>
<text text-anchor="middle" x="118" y="-62.6" font-family="Times,serif" font-size="14.00">ProjectAdminService</text>
</g>
<!-- ProjectAdminService&#45;&gt;AdminModule -->
<g id="edge17" class="edge">
<title>ProjectAdminService&#45;&gt;AdminModule</title>
<path fill="none" stroke="black" d="M118,-84.91C118,-104.14 118,-131.8 118,-131.8 118,-131.8 902.67,-131.8 902.67,-131.8"/>
<polygon fill="black" stroke="black" points="902.67,-135.3 912.67,-131.8 902.67,-128.3 902.67,-135.3"/>
</g>
</g>
</svg>
