<?xml version="1.0" encoding="UTF-8" standalone="no"?>
<!DOCTYPE svg PUBLIC "-//W3C//DTD SVG 1.1//EN"
 "http://www.w3.org/Graphics/SVG/1.1/DTD/svg11.dtd">
<!-- Generated by graphviz version 5.0.0 (20220707.1540)
 -->
<!-- Title: dependencies Pages: 1 -->
<svg width="830pt" height="247pt"
 viewBox="0.00 0.00 830.00 246.80" xmlns="http://www.w3.org/2000/svg" xmlns:xlink="http://www.w3.org/1999/xlink">
<g id="graph0" class="graph" transform="scale(1 1) rotate(0) translate(4 242.8)">
<title>dependencies</title>
<polygon fill="white" stroke="transparent" points="-4,4 -4,-242.8 826,-242.8 826,4 -4,4"/>
<text text-anchor="middle" x="411" y="-8.2" font-family="sans-serif" font-size="14.00">dependencies</text>
<g id="clust1" class="cluster">
<title>cluster_AppModule</title>
<polygon fill="none" stroke="black" stroke-dasharray="1,5" points="8,-32.8 8,-230.8 814,-230.8 814,-32.8 8,-32.8"/>
</g>
<g id="clust2" class="cluster">
<title>cluster_AppModule_declarations</title>
<polygon fill="none" stroke="black" points="395,-40.8 395,-92.8 806,-92.8 806,-40.8 395,-40.8"/>
</g>
<g id="clust6" class="cluster">
<title>cluster_AppModule_imports</title>
<polygon fill="none" stroke="black" points="16,-40.8 16,-92.8 387,-92.8 387,-40.8 16,-40.8"/>
</g>
<g id="clust8" class="cluster">
<title>cluster_AppModule_bootstrap</title>
<polygon fill="none" stroke="black" points="339,-170.8 339,-222.8 463,-222.8 463,-170.8 339,-170.8"/>
</g>
<!-- AppComponent -->
<g id="node1" class="node">
<title>AppComponent</title>
<polygon fill="#ffffb3" stroke="black" points="797.94,-84.8 692.06,-84.8 692.06,-48.8 797.94,-48.8 797.94,-84.8"/>
<text text-anchor="middle" x="745" y="-62.6" font-family="Times,serif" font-size="14.00">AppComponent</text>
</g>
<!-- AppModule -->
<g id="node4" class="node">
<title>AppModule</title>
<polygon fill="#8dd3c7" stroke="black" points="442.66,-149.8 439.66,-153.8 418.66,-153.8 415.66,-149.8 359.34,-149.8 359.34,-113.8 442.66,-113.8 442.66,-149.8"/>
<text text-anchor="middle" x="401" y="-127.6" font-family="Times,serif" font-size="14.00">AppModule</text>
</g>
<!-- AppComponent&#45;&gt;AppModule -->
<g id="edge1" class="edge">
<title>AppComponent&#45;&gt;AppModule</title>
<path fill="none" stroke="black" d="M745,-85.08C745,-106.12 745,-137.8 745,-137.8 745,-137.8 452.84,-137.8 452.84,-137.8"/>
<polygon fill="black" stroke="black" points="452.84,-134.3 442.84,-137.8 452.84,-141.3 452.84,-134.3"/>
</g>
<!-- HomeComponent -->
<g id="node2" class="node">
<title>HomeComponent</title>
<polygon fill="#ffffb3" stroke="black" points="674.55,-84.8 559.45,-84.8 559.45,-48.8 674.55,-48.8 674.55,-84.8"/>
<text text-anchor="middle" x="617" y="-62.6" font-family="Times,serif" font-size="14.00">HomeComponent</text>
</g>
<!-- HomeComponent&#45;&gt;AppModule -->
<g id="edge2" class="edge">
<title>HomeComponent&#45;&gt;AppModule</title>
<path fill="none" stroke="black" d="M617,-84.82C617,-102.17 617,-125.8 617,-125.8 617,-125.8 452.9,-125.8 452.9,-125.8"/>
<polygon fill="black" stroke="black" points="452.9,-122.3 442.9,-125.8 452.9,-129.3 452.9,-122.3"/>
</g>
<!-- NotFoundComponent -->
<g id="node3" class="node">
<title>NotFoundComponent</title>
<polygon fill="#ffffb3" stroke="black" points="541.12,-84.8 402.88,-84.8 402.88,-48.8 541.12,-48.8 541.12,-84.8"/>
<text text-anchor="middle" x="472" y="-62.6" font-family="Times,serif" font-size="14.00">NotFoundComponent</text>
</g>
<!-- NotFoundComponent&#45;&gt;AppModule -->
<g id="edge3" class="edge">
<title>NotFoundComponent&#45;&gt;AppModule</title>
<path fill="none" stroke="black" d="M422.89,-84.91C422.89,-84.91 422.89,-103.79 422.89,-103.79"/>
<polygon fill="black" stroke="black" points="419.39,-103.79 422.89,-113.79 426.39,-103.79 419.39,-103.79"/>
</g>
<!-- AppComponent  -->
<g id="node8" class="node">
<title>AppComponent </title>
<polygon fill="#80b1d3" stroke="black" points="455.44,-214.8 346.56,-214.8 346.56,-178.8 455.44,-178.8 455.44,-214.8"/>
<text text-anchor="middle" x="401" y="-192.6" font-family="Times,serif" font-size="14.00">AppComponent </text>
</g>
<!-- AppModule&#45;&gt;AppComponent  -->
<g id="edge7" class="edge">
<title>AppModule&#45;&gt;AppComponent </title>
<path fill="none" stroke="black" stroke-dasharray="1,5" d="M401,-149.91C401,-149.91 401,-168.79 401,-168.79"/>
<polygon fill="black" stroke="black" points="397.5,-168.79 401,-178.79 404.5,-168.79 397.5,-168.79"/>
</g>
<!-- AdminModule -->
<g id="node5" class="node">
<title>AdminModule</title>
<polygon fill="#8dd3c7" stroke="black" points="379.44,-84.8 376.44,-88.8 355.44,-88.8 352.44,-84.8 280.56,-84.8 280.56,-48.8 379.44,-48.8 379.44,-84.8"/>
<text text-anchor="middle" x="330" y="-62.6" font-family="Times,serif" font-size="14.00">AdminModule</text>
</g>
<!-- AdminModule&#45;&gt;AppModule -->
<g id="edge4" class="edge">
<title>AdminModule&#45;&gt;AppModule</title>
<path fill="none" stroke="black" d="M369.19,-84.91C369.19,-84.91 369.19,-103.79 369.19,-103.79"/>
<polygon fill="black" stroke="black" points="365.69,-103.79 369.19,-113.79 372.69,-103.79 365.69,-103.79"/>
</g>
<!-- AppRoutingModule -->
<g id="node6" class="node">
<title>AppRoutingModule</title>
<polygon fill="#8dd3c7" stroke="black" points="262.28,-84.8 259.28,-88.8 238.28,-88.8 235.28,-84.8 133.72,-84.8 133.72,-48.8 262.28,-48.8 262.28,-84.8"/>
<text text-anchor="middle" x="198" y="-62.6" font-family="Times,serif" font-size="14.00">AppRoutingModule</text>
</g>
<!-- AppRoutingModule&#45;&gt;AppModule -->
<g id="edge5" class="edge">
<title>AppRoutingModule&#45;&gt;AppModule</title>
<path fill="none" stroke="black" d="M198,-84.82C198,-102.17 198,-125.8 198,-125.8 198,-125.8 348.94,-125.8 348.94,-125.8"/>
<polygon fill="black" stroke="black" points="348.94,-129.3 358.94,-125.8 348.94,-122.3 348.94,-129.3"/>
</g>
<!-- MenuModule -->
<g id="node7" class="node">
<title>MenuModule</title>
<polygon fill="#8dd3c7" stroke="black" points="116.21,-84.8 113.21,-88.8 92.21,-88.8 89.21,-84.8 23.79,-84.8 23.79,-48.8 116.21,-48.8 116.21,-84.8"/>
<text text-anchor="middle" x="70" y="-62.6" font-family="Times,serif" font-size="14.00">MenuModule</text>
</g>
<!-- MenuModule&#45;&gt;AppModule -->
<g id="edge6" class="edge">
<title>MenuModule&#45;&gt;AppModule</title>
<path fill="none" stroke="black" d="M70,-85.08C70,-106.12 70,-137.8 70,-137.8 70,-137.8 349.08,-137.8 349.08,-137.8"/>
<polygon fill="black" stroke="black" points="349.08,-141.3 359.08,-137.8 349.08,-134.3 349.08,-141.3"/>
</g>
</g>
</svg>
