<?xml version="1.0" encoding="UTF-8" standalone="no"?>
<!DOCTYPE svg PUBLIC "-//W3C//DTD SVG 1.1//EN"
 "http://www.w3.org/Graphics/SVG/1.1/DTD/svg11.dtd">
<!-- Generated by graphviz version 5.0.0 (20220707.1540)
 -->
<!-- Title: dependencies Pages: 1 -->
<svg width="2919pt" height="321pt"
 viewBox="0.00 0.00 2919.00 320.80" xmlns="http://www.w3.org/2000/svg" xmlns:xlink="http://www.w3.org/1999/xlink">
<g id="graph0" class="graph" transform="scale(1 1) rotate(0) translate(4 316.8)">
<title>dependencies</title>
<polygon fill="white" stroke="transparent" points="-4,4 -4,-316.8 2915,-316.8 2915,4 -4,4"/>
<text text-anchor="middle" x="1455.5" y="-8.2" font-family="sans-serif" font-size="14.00">dependencies</text>
<g id="clust1" class="cluster">
<title>cluster_AdminModule</title>
<polygon fill="none" stroke="black" stroke-dasharray="1,5" points="8,-32.8 8,-236.8 2056,-236.8 2056,-32.8 8,-32.8"/>
</g>
<g id="clust2" class="cluster">
<title>cluster_AdminModule_declarations</title>
<polygon fill="none" stroke="black" points="457,-40.8 457,-92.8 1896,-92.8 1896,-40.8 457,-40.8"/>
</g>
<g id="clust10" class="cluster">
<title>cluster_AdminModule_imports</title>
<polygon fill="none" stroke="black" points="1904,-40.8 1904,-92.8 2048,-92.8 2048,-40.8 1904,-40.8"/>
</g>
<g id="clust11" class="cluster">
<title>cluster_AdminModule_exports</title>
<polygon fill="none" stroke="black" points="444,-176.8 444,-228.8 1909,-228.8 1909,-176.8 444,-176.8"/>
</g>
<g id="clust13" class="cluster">
<title>cluster_AdminModule_providers</title>
<polygon fill="none" stroke="black" points="16,-40.8 16,-92.8 449,-92.8 449,-40.8 16,-40.8"/>
</g>
<g id="clust14" class="cluster">
<title>cluster_AppModule</title>
<polygon fill="none" stroke="black" stroke-dasharray="1,5" points="2064,-100.8 2064,-304.8 2607,-304.8 2607,-100.8 2064,-100.8"/>
</g>
<g id="clust15" class="cluster">
<title>cluster_AppModule_declarations</title>
<polygon fill="none" stroke="black" points="2072,-108.8 2072,-160.8 2483,-160.8 2483,-108.8 2072,-108.8"/>
</g>
<g id="clust19" class="cluster">
<title>cluster_AppModule_imports</title>
<polygon fill="none" stroke="black" points="2491,-108.8 2491,-160.8 2599,-160.8 2599,-108.8 2491,-108.8"/>
</g>
<g id="clust21" class="cluster">
<title>cluster_AppModule_bootstrap</title>
<polygon fill="none" stroke="black" points="2159,-244.8 2159,-296.8 2283,-296.8 2283,-244.8 2159,-244.8"/>
</g>
<g id="clust29" class="cluster">
<title>cluster_MenuModule</title>
<polygon fill="none" stroke="black" stroke-dasharray="1,5" points="2615,-168.8 2615,-236.8 2903,-236.8 2903,-168.8 2615,-168.8"/>
</g>
<g id="clust30" class="cluster">
<title>cluster_MenuModule_declarations</title>
<polygon fill="none" stroke="black" points="2765,-176.8 2765,-228.8 2895,-228.8 2895,-176.8 2765,-176.8"/>
</g>
<g id="clust33" class="cluster">
<title>cluster_MenuModule_exports</title>
<polygon fill="none" stroke="black" points="2623,-176.8 2623,-228.8 2757,-228.8 2757,-176.8 2623,-176.8"/>
</g>
<!-- AttributesAdminComponent -->
<g id="node1" class="node">
<title>AttributesAdminComponent</title>
<polygon fill="#ffffb3" stroke="black" points="1888.21,-84.8 1711.79,-84.8 1711.79,-48.8 1888.21,-48.8 1888.21,-84.8"/>
<text text-anchor="middle" x="1800" y="-62.6" font-family="Times,serif" font-size="14.00">AttributesAdminComponent</text>
</g>
<!-- AdminModule -->
<g id="node8" class="node">
<title>AdminModule</title>
<polygon fill="#8dd3c7" stroke="black" points="1186.44,-152.8 1183.44,-156.8 1162.44,-156.8 1159.44,-152.8 1087.56,-152.8 1087.56,-116.8 1186.44,-116.8 1186.44,-152.8"/>
<text text-anchor="middle" x="1137" y="-130.6" font-family="Times,serif" font-size="14.00">AdminModule</text>
</g>
<!-- AttributesAdminComponent&#45;&gt;AdminModule -->
<g id="edge1" class="edge">
<title>AttributesAdminComponent&#45;&gt;AdminModule</title>
<path fill="none" stroke="black" d="M1716.52,-85.07C1716.52,-103.36 1716.52,-128.8 1716.52,-128.8 1716.52,-128.8 1196.41,-128.8 1196.41,-128.8"/>
<polygon fill="black" stroke="black" points="1196.41,-125.3 1186.41,-128.8 1196.41,-132.3 1196.41,-125.3"/>
</g>
<!-- ProjectAdminAttributeCreatorComponent -->
<g id="node2" class="node">
<title>ProjectAdminAttributeCreatorComponent</title>
<polygon fill="#ffffb3" stroke="black" points="1694.4,-84.8 1441.6,-84.8 1441.6,-48.8 1694.4,-48.8 1694.4,-84.8"/>
<text text-anchor="middle" x="1568" y="-62.6" font-family="Times,serif" font-size="14.00">ProjectAdminAttributeCreatorComponent</text>
</g>
<!-- ProjectAdminAttributeCreatorComponent&#45;&gt;AdminModule -->
<g id="edge2" class="edge">
<title>ProjectAdminAttributeCreatorComponent&#45;&gt;AdminModule</title>
<path fill="none" stroke="black" d="M1611.82,-84.83C1611.82,-101.86 1611.82,-124.8 1611.82,-124.8 1611.82,-124.8 1196.47,-124.8 1196.47,-124.8"/>
<polygon fill="black" stroke="black" points="1196.47,-121.3 1186.47,-124.8 1196.47,-128.3 1196.47,-121.3"/>
</g>
<!-- ProjectsAdminComponent -->
<g id="node3" class="node">
<title>ProjectsAdminComponent</title>
<polygon fill="#ffffb3" stroke="black" points="1423.82,-84.8 1258.18,-84.8 1258.18,-48.8 1423.82,-48.8 1423.82,-84.8"/>
<text text-anchor="middle" x="1341" y="-62.6" font-family="Times,serif" font-size="14.00">ProjectsAdminComponent</text>
</g>
<!-- ProjectsAdminComponent&#45;&gt;AdminModule -->
<g id="edge3" class="edge">
<title>ProjectsAdminComponent&#45;&gt;AdminModule</title>
<path fill="none" stroke="black" d="M1369.3,-85.08C1369.3,-100.75 1369.3,-120.8 1369.3,-120.8 1369.3,-120.8 1196.27,-120.8 1196.27,-120.8"/>
<polygon fill="black" stroke="black" points="1196.27,-117.3 1186.27,-120.8 1196.27,-124.3 1196.27,-117.3"/>
</g>
<!-- ProjectsAdminCreatorComponent -->
<g id="node4" class="node">
<title>ProjectsAdminCreatorComponent</title>
<polygon fill="#ffffb3" stroke="black" points="1240.8,-84.8 1033.2,-84.8 1033.2,-48.8 1240.8,-48.8 1240.8,-84.8"/>
<text text-anchor="middle" x="1137" y="-62.6" font-family="Times,serif" font-size="14.00">ProjectsAdminCreatorComponent</text>
</g>
<!-- ProjectsAdminCreatorComponent&#45;&gt;AdminModule -->
<g id="edge4" class="edge">
<title>ProjectsAdminCreatorComponent&#45;&gt;AdminModule</title>
<path fill="none" stroke="black" d="M1137,-85.02C1137,-85.02 1137,-106.53 1137,-106.53"/>
<polygon fill="black" stroke="black" points="1133.5,-106.53 1137,-116.53 1140.5,-106.53 1133.5,-106.53"/>
</g>
<!-- ProjectsAdminDetailComponent -->
<g id="node5" class="node">
<title>ProjectsAdminDetailComponent</title>
<polygon fill="#ffffb3" stroke="black" points="1015.53,-84.8 816.47,-84.8 816.47,-48.8 1015.53,-48.8 1015.53,-84.8"/>
<text text-anchor="middle" x="916" y="-62.6" font-family="Times,serif" font-size="14.00">ProjectsAdminDetailComponent</text>
</g>
<!-- ProjectsAdminDetailComponent&#45;&gt;AdminModule -->
<g id="edge5" class="edge">
<title>ProjectsAdminDetailComponent&#45;&gt;AdminModule</title>
<path fill="none" stroke="black" d="M947.76,-85.08C947.76,-100.75 947.76,-120.8 947.76,-120.8 947.76,-120.8 1077.77,-120.8 1077.77,-120.8"/>
<polygon fill="black" stroke="black" points="1077.77,-124.3 1087.77,-120.8 1077.77,-117.3 1077.77,-124.3"/>
</g>
<!-- ProjectsAdminVueComponent -->
<g id="node6" class="node">
<title>ProjectsAdminVueComponent</title>
<polygon fill="#ffffb3" stroke="black" points="798.15,-84.8 609.85,-84.8 609.85,-48.8 798.15,-48.8 798.15,-84.8"/>
<text text-anchor="middle" x="704" y="-62.6" font-family="Times,serif" font-size="14.00">ProjectsAdminVueComponent</text>
</g>
<!-- ProjectsAdminVueComponent&#45;&gt;AdminModule -->
<g id="edge6" class="edge">
<title>ProjectsAdminVueComponent&#45;&gt;AdminModule</title>
<path fill="none" stroke="black" d="M731.27,-84.83C731.27,-101.86 731.27,-124.8 731.27,-124.8 731.27,-124.8 1077.66,-124.8 1077.66,-124.8"/>
<polygon fill="black" stroke="black" points="1077.66,-128.3 1087.66,-124.8 1077.66,-121.3 1077.66,-128.3"/>
</g>
<!-- SettingsComponent -->
<g id="node7" class="node">
<title>SettingsComponent</title>
<polygon fill="#ffffb3" stroke="black" points="591.45,-84.8 464.55,-84.8 464.55,-48.8 591.45,-48.8 591.45,-84.8"/>
<text text-anchor="middle" x="528" y="-62.6" font-family="Times,serif" font-size="14.00">SettingsComponent</text>
</g>
<!-- SettingsComponent&#45;&gt;AdminModule -->
<g id="edge7" class="edge">
<title>SettingsComponent&#45;&gt;AdminModule</title>
<path fill="none" stroke="black" d="M586.6,-85.07C586.6,-103.36 586.6,-128.8 586.6,-128.8 586.6,-128.8 1077.67,-128.8 1077.67,-128.8"/>
<polygon fill="black" stroke="black" points="1077.67,-132.3 1087.67,-128.8 1077.67,-125.3 1077.67,-132.3"/>
</g>
<!-- AttributesAdminComponent  -->
<g id="node10" class="node">
<title>AttributesAdminComponent </title>
<polygon fill="#fb8072" stroke="black" points="1900.71,-220.8 1721.29,-220.8 1721.29,-184.8 1900.71,-184.8 1900.71,-220.8"/>
<text text-anchor="middle" x="1811" y="-198.6" font-family="Times,serif" font-size="14.00">AttributesAdminComponent </text>
</g>
<!-- AdminModule&#45;&gt;AttributesAdminComponent  -->
<g id="edge9" class="edge">
<title>AdminModule&#45;&gt;AttributesAdminComponent </title>
<path fill="none" stroke="black" stroke-dasharray="5,2" d="M1186.36,-140.8C1340.82,-140.8 1804.62,-140.8 1804.62,-140.8 1804.62,-140.8 1804.62,-174.53 1804.62,-174.53"/>
<polygon fill="black" stroke="black" points="1801.13,-174.53 1804.62,-184.53 1808.13,-174.53 1801.13,-174.53"/>
</g>
<!-- ProjectAdminAttributeCreatorComponent  -->
<g id="node11" class="node">
<title>ProjectAdminAttributeCreatorComponent </title>
<polygon fill="#fb8072" stroke="black" points="1702.9,-220.8 1447.1,-220.8 1447.1,-184.8 1702.9,-184.8 1702.9,-220.8"/>
<text text-anchor="middle" x="1575" y="-198.6" font-family="Times,serif" font-size="14.00">ProjectAdminAttributeCreatorComponent </text>
</g>
<!-- AdminModule&#45;&gt;ProjectAdminAttributeCreatorComponent  -->
<g id="edge10" class="edge">
<title>AdminModule&#45;&gt;ProjectAdminAttributeCreatorComponent </title>
<path fill="none" stroke="black" stroke-dasharray="5,2" d="M1186.3,-144.8C1291.7,-144.8 1529.43,-144.8 1529.43,-144.8 1529.43,-144.8 1529.43,-174.77 1529.43,-174.77"/>
<polygon fill="black" stroke="black" points="1525.93,-174.77 1529.43,-184.77 1532.93,-174.77 1525.93,-174.77"/>
</g>
<!-- ProjectsAdminComponent  -->
<g id="node12" class="node">
<title>ProjectsAdminComponent </title>
<polygon fill="#fb8072" stroke="black" points="1429.32,-220.8 1260.68,-220.8 1260.68,-184.8 1429.32,-184.8 1429.32,-220.8"/>
<text text-anchor="middle" x="1345" y="-198.6" font-family="Times,serif" font-size="14.00">ProjectsAdminComponent </text>
</g>
<!-- AdminModule&#45;&gt;ProjectsAdminComponent  -->
<g id="edge11" class="edge">
<title>AdminModule&#45;&gt;ProjectsAdminComponent </title>
<path fill="none" stroke="black" stroke-dasharray="5,2" d="M1186.57,-148.8C1239.22,-148.8 1314.95,-148.8 1314.95,-148.8 1314.95,-148.8 1314.95,-174.52 1314.95,-174.52"/>
<polygon fill="black" stroke="black" points="1311.45,-174.52 1314.95,-184.52 1318.45,-174.52 1311.45,-174.52"/>
</g>
<!-- ProjectsAdminCreatorComponent  -->
<g id="node13" class="node">
<title>ProjectsAdminCreatorComponent </title>
<polygon fill="#fb8072" stroke="black" points="1242.3,-220.8 1031.7,-220.8 1031.7,-184.8 1242.3,-184.8 1242.3,-220.8"/>
<text text-anchor="middle" x="1137" y="-198.6" font-family="Times,serif" font-size="14.00">ProjectsAdminCreatorComponent </text>
</g>
<!-- AdminModule&#45;&gt;ProjectsAdminCreatorComponent  -->
<g id="edge12" class="edge">
<title>AdminModule&#45;&gt;ProjectsAdminCreatorComponent </title>
<path fill="none" stroke="black" stroke-dasharray="5,2" d="M1137,-153.02C1137,-153.02 1137,-174.53 1137,-174.53"/>
<polygon fill="black" stroke="black" points="1133.5,-174.53 1137,-184.53 1140.5,-174.53 1133.5,-174.53"/>
</g>
<!-- ProjectsAdminDetailComponent  -->
<g id="node14" class="node">
<title>ProjectsAdminDetailComponent </title>
<polygon fill="#fb8072" stroke="black" points="1013.53,-220.8 810.47,-220.8 810.47,-184.8 1013.53,-184.8 1013.53,-220.8"/>
<text text-anchor="middle" x="912" y="-198.6" font-family="Times,serif" font-size="14.00">ProjectsAdminDetailComponent </text>
</g>
<!-- AdminModule&#45;&gt;ProjectsAdminDetailComponent  -->
<g id="edge13" class="edge">
<title>AdminModule&#45;&gt;ProjectsAdminDetailComponent </title>
<path fill="none" stroke="black" stroke-dasharray="5,2" d="M1087.53,-148.8C1013.37,-148.8 881.99,-148.8 881.99,-148.8 881.99,-148.8 881.99,-174.52 881.99,-174.52"/>
<polygon fill="black" stroke="black" points="878.49,-174.52 881.99,-184.52 885.49,-174.52 878.49,-174.52"/>
</g>
<!-- ProjectsAdminVueComponent  -->
<g id="node15" class="node">
<title>ProjectsAdminVueComponent </title>
<polygon fill="#fb8072" stroke="black" points="792.15,-220.8 599.85,-220.8 599.85,-184.8 792.15,-184.8 792.15,-220.8"/>
<text text-anchor="middle" x="696" y="-198.6" font-family="Times,serif" font-size="14.00">ProjectsAdminVueComponent </text>
</g>
<!-- AdminModule&#45;&gt;ProjectsAdminVueComponent  -->
<g id="edge14" class="edge">
<title>AdminModule&#45;&gt;ProjectsAdminVueComponent </title>
<path fill="none" stroke="black" stroke-dasharray="5,2" d="M1087.52,-144.8C967.45,-144.8 670.48,-144.8 670.48,-144.8 670.48,-144.8 670.48,-174.77 670.48,-174.77"/>
<polygon fill="black" stroke="black" points="666.98,-174.77 670.48,-184.77 673.98,-174.77 666.98,-174.77"/>
</g>
<!-- SettingsComponent  -->
<g id="node16" class="node">
<title>SettingsComponent </title>
<polygon fill="#fb8072" stroke="black" points="581.95,-220.8 452.05,-220.8 452.05,-184.8 581.95,-184.8 581.95,-220.8"/>
<text text-anchor="middle" x="517" y="-198.6" font-family="Times,serif" font-size="14.00">SettingsComponent </text>
</g>
<!-- AdminModule&#45;&gt;SettingsComponent  -->
<g id="edge15" class="edge">
<title>AdminModule&#45;&gt;SettingsComponent </title>
<path fill="none" stroke="black" stroke-dasharray="5,2" d="M1087.56,-140.8C941.72,-140.8 523.38,-140.8 523.38,-140.8 523.38,-140.8 523.38,-174.53 523.38,-174.53"/>
<polygon fill="black" stroke="black" points="519.88,-174.53 523.38,-184.53 526.88,-174.53 519.88,-174.53"/>
</g>
<!-- AppModule -->
<g id="node22" class="node">
<title>AppModule</title>
<polygon fill="#8dd3c7" stroke="black" points="2262.66,-220.8 2259.66,-224.8 2238.66,-224.8 2235.66,-220.8 2179.34,-220.8 2179.34,-184.8 2262.66,-184.8 2262.66,-220.8"/>
<text text-anchor="middle" x="2221" y="-198.6" font-family="Times,serif" font-size="14.00">AppModule</text>
</g>
<!-- AdminModule&#45;&gt;AppModule -->
<g id="edge21" class="edge">
<title>AdminModule&#45;&gt;AppModule</title>
<path fill="none" stroke="black" d="M1186.31,-136.8C1377.61,-136.8 2060.17,-136.8 2060.17,-136.8 2060.17,-136.8 2060.17,-202.8 2060.17,-202.8 2060.17,-202.8 2169.16,-202.8 2169.16,-202.8"/>
<polygon fill="black" stroke="black" points="2169.16,-206.3 2179.16,-202.8 2169.16,-199.3 2169.16,-206.3"/>
</g>
<!-- AppRoutingModule -->
<g id="node9" class="node">
<title>AppRoutingModule</title>
<polygon fill="#8dd3c7" stroke="black" points="2040.28,-84.8 2037.28,-88.8 2016.28,-88.8 2013.28,-84.8 1911.72,-84.8 1911.72,-48.8 2040.28,-48.8 2040.28,-84.8"/>
<text text-anchor="middle" x="1976" y="-62.6" font-family="Times,serif" font-size="14.00">AppRoutingModule</text>
</g>
<!-- AppRoutingModule&#45;&gt;AdminModule -->
<g id="edge8" class="edge">
<title>AppRoutingModule&#45;&gt;AdminModule</title>
<path fill="none" stroke="black" d="M1976,-84.83C1976,-104.38 1976,-132.8 1976,-132.8 1976,-132.8 1196.35,-132.8 1196.35,-132.8"/>
<polygon fill="black" stroke="black" points="1196.35,-129.3 1186.35,-132.8 1196.35,-136.3 1196.35,-129.3"/>
</g>
<!-- AppRoutingModule&#45;&gt;AppModule -->
<g id="edge22" class="edge">
<title>AppRoutingModule&#45;&gt;AppModule</title>
<path fill="none" stroke="black" d="M2040.35,-72.8C2114.76,-72.8 2227.14,-72.8 2227.14,-72.8 2227.14,-72.8 2227.14,-174.72 2227.14,-174.72"/>
<polygon fill="black" stroke="black" points="2223.64,-174.72 2227.14,-184.72 2230.64,-174.72 2223.64,-174.72"/>
</g>
<!-- MenuModule -->
<g id="node23" class="node">
<title>MenuModule</title>
<polygon fill="#8dd3c7" stroke="black" points="2591.21,-152.8 2588.21,-156.8 2567.21,-156.8 2564.21,-152.8 2498.79,-152.8 2498.79,-116.8 2591.21,-116.8 2591.21,-152.8"/>
<text text-anchor="middle" x="2545" y="-130.6" font-family="Times,serif" font-size="14.00">MenuModule</text>
</g>
<!-- AppRoutingModule&#45;&gt;MenuModule -->
<g id="edge26" class="edge">
<title>AppRoutingModule&#45;&gt;MenuModule</title>
<path fill="none" stroke="black" d="M2040.44,-60.8C2189.41,-60.8 2545,-60.8 2545,-60.8 2545,-60.8 2545,-106.51 2545,-106.51"/>
<polygon fill="black" stroke="black" points="2541.5,-106.51 2545,-116.51 2548.5,-106.51 2541.5,-106.51"/>
</g>
<!-- AttributesAdminService -->
<g id="node17" class="node">
<title>AttributesAdminService</title>
<ellipse fill="#fdb462" stroke="black" cx="336" cy="-66.8" rx="105.38" ry="18"/>
<text text-anchor="middle" x="336" y="-62.6" font-family="Times,serif" font-size="14.00">AttributesAdminService</text>
</g>
<!-- AttributesAdminService&#45;&gt;AdminModule -->
<g id="edge16" class="edge">
<title>AttributesAdminService&#45;&gt;AdminModule</title>
<path fill="none" stroke="black" d="M336,-84.83C336,-104.38 336,-132.8 336,-132.8 336,-132.8 1077.5,-132.8 1077.5,-132.8"/>
<polygon fill="black" stroke="black" points="1077.5,-136.3 1087.5,-132.8 1077.5,-129.3 1077.5,-136.3"/>
</g>
<!-- ProjectAdminService -->
<g id="node18" class="node">
<title>ProjectAdminService</title>
<ellipse fill="#fdb462" stroke="black" cx="118" cy="-66.8" rx="94.34" ry="18"/>
<text text-anchor="middle" x="118" y="-62.6" font-family="Times,serif" font-size="14.00">ProjectAdminService</text>
</g>
<!-- ProjectAdminService&#45;&gt;AdminModule -->
<g id="edge17" class="edge">
<title>ProjectAdminService&#45;&gt;AdminModule</title>
<path fill="none" stroke="black" d="M118,-84.83C118,-105.57 118,-136.8 118,-136.8 118,-136.8 1077.51,-136.8 1077.51,-136.8"/>
<polygon fill="black" stroke="black" points="1077.51,-140.3 1087.51,-136.8 1077.51,-133.3 1077.51,-140.3"/>
</g>
<!-- AppComponent -->
<g id="node19" class="node">
<title>AppComponent</title>
<polygon fill="#ffffb3" stroke="black" points="2474.94,-152.8 2369.06,-152.8 2369.06,-116.8 2474.94,-116.8 2474.94,-152.8"/>
<text text-anchor="middle" x="2422" y="-130.6" font-family="Times,serif" font-size="14.00">AppComponent</text>
</g>
<!-- AppComponent&#45;&gt;AppModule -->
<g id="edge18" class="edge">
<title>AppComponent&#45;&gt;AppModule</title>
<path fill="none" stroke="black" d="M2422,-152.82C2422,-170.17 2422,-193.8 2422,-193.8 2422,-193.8 2273.14,-193.8 2273.14,-193.8"/>
<polygon fill="black" stroke="black" points="2273.14,-190.3 2263.14,-193.8 2273.14,-197.3 2273.14,-190.3"/>
</g>
<!-- HomeComponent -->
<g id="node20" class="node">
<title>HomeComponent</title>
<polygon fill="#ffffb3" stroke="black" points="2351.55,-152.8 2236.45,-152.8 2236.45,-116.8 2351.55,-116.8 2351.55,-152.8"/>
<text text-anchor="middle" x="2294" y="-130.6" font-family="Times,serif" font-size="14.00">HomeComponent</text>
</g>
<!-- HomeComponent&#45;&gt;AppModule -->
<g id="edge19" class="edge">
<title>HomeComponent&#45;&gt;AppModule</title>
<path fill="none" stroke="black" d="M2249.53,-153.02C2249.53,-153.02 2249.53,-174.53 2249.53,-174.53"/>
<polygon fill="black" stroke="black" points="2246.03,-174.53 2249.53,-184.53 2253.03,-174.53 2246.03,-174.53"/>
</g>
<!-- NotFoundComponent -->
<g id="node21" class="node">
<title>NotFoundComponent</title>
<polygon fill="#ffffb3" stroke="black" points="2218.12,-152.8 2079.88,-152.8 2079.88,-116.8 2218.12,-116.8 2218.12,-152.8"/>
<text text-anchor="middle" x="2149" y="-130.6" font-family="Times,serif" font-size="14.00">NotFoundComponent</text>
</g>
<!-- NotFoundComponent&#45;&gt;AppModule -->
<g id="edge20" class="edge">
<title>NotFoundComponent&#45;&gt;AppModule</title>
<path fill="none" stroke="black" d="M2198.61,-153.02C2198.61,-153.02 2198.61,-174.53 2198.61,-174.53"/>
<polygon fill="black" stroke="black" points="2195.11,-174.53 2198.61,-184.53 2202.11,-174.53 2195.11,-174.53"/>
</g>
<!-- AppComponent  -->
<g id="node24" class="node">
<title>AppComponent </title>
<polygon fill="#80b1d3" stroke="black" points="2275.44,-288.8 2166.56,-288.8 2166.56,-252.8 2275.44,-252.8 2275.44,-288.8"/>
<text text-anchor="middle" x="2221" y="-266.6" font-family="Times,serif" font-size="14.00">AppComponent </text>
</g>
<!-- AppModule&#45;&gt;AppComponent  -->
<g id="edge24" class="edge">
<title>AppModule&#45;&gt;AppComponent </title>
<path fill="none" stroke="black" stroke-dasharray="1,5" d="M2221,-221.02C2221,-221.02 2221,-242.53 2221,-242.53"/>
<polygon fill="black" stroke="black" points="2217.5,-242.53 2221,-252.53 2224.5,-242.53 2217.5,-242.53"/>
</g>
<!-- MenuModule&#45;&gt;AppModule -->
<g id="edge23" class="edge">
<title>MenuModule&#45;&gt;AppModule</title>
<path fill="none" stroke="black" d="M2529.63,-153.02C2529.63,-173.17 2529.63,-202.8 2529.63,-202.8 2529.63,-202.8 2272.94,-202.8 2272.94,-202.8"/>
<polygon fill="black" stroke="black" points="2272.94,-199.3 2262.94,-202.8 2272.94,-206.3 2272.94,-199.3"/>
</g>
<!-- MenuComponent  -->
<g id="node26" class="node">
<title>MenuComponent </title>
<polygon fill="#fb8072" stroke="black" points="2748.99,-220.8 2631.01,-220.8 2631.01,-184.8 2748.99,-184.8 2748.99,-220.8"/>
<text text-anchor="middle" x="2690" y="-198.6" font-family="Times,serif" font-size="14.00">MenuComponent </text>
</g>
<!-- MenuModule&#45;&gt;MenuComponent  -->
<g id="edge27" class="edge">
<title>MenuModule&#45;&gt;MenuComponent </title>
<path fill="none" stroke="black" stroke-dasharray="5,2" d="M2560.37,-153.05C2560.37,-175.82 2560.37,-211.8 2560.37,-211.8 2560.37,-211.8 2621.25,-211.8 2621.25,-211.8"/>
<polygon fill="black" stroke="black" points="2621.25,-215.3 2631.25,-211.8 2621.25,-208.3 2621.25,-215.3"/>
</g>
<!-- MenuComponent -->
<g id="node25" class="node">
<title>MenuComponent</title>
<polygon fill="#ffffb3" stroke="black" points="2886.99,-220.8 2773.01,-220.8 2773.01,-184.8 2886.99,-184.8 2886.99,-220.8"/>
<text text-anchor="middle" x="2830" y="-198.6" font-family="Times,serif" font-size="14.00">MenuComponent</text>
</g>
<!-- MenuComponent&#45;&gt;MenuModule -->
<g id="edge25" class="edge">
<title>MenuComponent&#45;&gt;MenuModule</title>
<path fill="none" stroke="black" d="M2830,-184.58C2830,-164.43 2830,-134.8 2830,-134.8 2830,-134.8 2601.42,-134.8 2601.42,-134.8"/>
<polygon fill="black" stroke="black" points="2601.42,-131.3 2591.42,-134.8 2601.42,-138.3 2601.42,-131.3"/>
</g>
</g>
</svg>
